<?xml version="1.0" encoding="UTF-8"?>
<svg id="Layer_1" xmlns="http://www.w3.org/2000/svg" version="1.1" xmlns:xlink="http://www.w3.org/1999/xlink" viewBox="0 0 263 302">
  <!-- Generator: Adobe Illustrator 29.8.1, SVG Export Plug-In . SVG Version: 2.1.1 Build 2)  -->
  <defs>
    <style>
      .st0 {
        fill: #414141;
      }

      .st1 {
        fill: #fff;
      }

      .st2 {
        fill: none;
      }

      .st3 {
        clip-path: url(#clippath-1);
      }

      .st4 {
        fill: #fcd602;
      }

      .st5 {
        clip-path: url(#clippath);
      }
    </style>
    <clipPath id="clippath">
      <rect class="st2" x="5.44" y="5" width="250.4" height="292.25"/>
    </clipPath>
    <clipPath id="clippath-1">
      <rect class="st2" x="5.44" y="5" width="250.4" height="292.25"/>
    </clipPath>
  </defs>
  <g id="Artwork_7">
    <g class="st5">
      <g class="st3">
        <path class="st4" d="M6.52,286.06L94.86,46.62c3.6-8.4,7.59-12.39,16.39-12.39h38.38c8.8,0,13.2,4,16.39,12.39l88.75,239.44c2,4.8,2,11.19-6.8,11.19h-41.97c-8.8,0-11.99-2.4-15.19-12-6.71-18.93-24.61-31.58-44.69-31.58h-30.94c-20.08,0-37.99,12.65-44.69,31.58-3.2,9.6-6.39,12-15.19,12H13.32c-8.8,0-8.8-6.39-6.8-11.19M130.44,220.45h0c30.28,0,51.59-29.75,41.87-58.42-13.57-40-70.15-40.01-83.73,0-9.73,28.67,11.59,58.42,41.86,58.42"/>
        <path class="st0" d="M111.25,34.22h38.38c5.62,0,9.34,1.83,12.2,5.2.37-4.22.08-8.57-1.39-12.93-9.73-28.66-50.26-28.67-59.99,0-1.5,4.42-1.79,8.84-1.39,13.11,2.87-3.5,6.47-5.38,12.2-5.38"/>
        <path class="st1" d="M149.62,34.22c5.66,0,9.49,1.68,12.35,5.09-1.32,15.72-14.4,29.03-31.54,29.03s-30.1-13.2-31.52-28.83c2.88-3.55,6.57-5.3,12.33-5.3h38.38Z"/>
      </g>
    </g>
  </g>
</svg>